<svg width="16" height="18" viewBox="0 0 16 18" fill="none" xmlns="http://www.w3.org/2000/svg">
<path d="M2.48828 15.5938C4.33203 17.4688 7.33203 17.5 9.20703 15.5938L14.582 10.0938C14.7695 9.90625 14.7695 9.59375 14.5508 9.40625L13.832 8.6875C13.6445 8.5 13.332 8.5 13.1445 8.6875L7.76953 14.1875C6.70703 15.2812 4.98828 15.2812 3.92578 14.1875C2.86328 13.0938 2.86328 11.2812 3.95703 10.1875L10.5195 3.46875C11.1133 2.875 12.082 2.875 12.6758 3.46875C13.2695 4.09375 13.2695 5.125 12.6758 5.75L6.95703 11.5938C6.83203 11.7188 6.61328 11.7188 6.45703 11.5938C6.33203 11.4375 6.33203 11.1562 6.48828 11L10.9883 6.4375C11.1758 6.21875 11.1758 5.90625 10.957 5.71875L10.2695 5.03125C10.0508 4.8125 9.73828 4.84375 9.55078 5.03125L5.05078 9.625C4.14453 10.5312 4.11328 12.0312 5.01953 12.9688C5.92578 13.9375 7.45703 13.9375 8.39453 13L14.1133 7.15625C15.4883 5.75 15.457 3.46875 14.1133 2.0625C12.707 0.65625 10.457 0.65625 9.08203 2.0625L2.51953 8.78125C0.675781 10.6562 0.644531 13.6875 2.48828 15.5938Z" fill="white"/>
</svg>
