<svg width="514" height="617" viewBox="0 0 514 617" fill="none" xmlns="http://www.w3.org/2000/svg">
<path d="M158.867 370.303L201.299 256.133L262.321 278.813C285.505 287.429 305.06 287.727 320.985 279.706C337.073 271.247 348.45 258.05 355.115 240.116C359.83 227.43 361.27 215.519 359.435 204.382C358.2 192.97 353.746 182.851 346.073 174.025C339.001 164.925 328.903 157.936 315.78 153.058C301.782 147.856 288.833 146.528 276.934 149.076C265.197 151.186 254.915 156.077 246.089 163.75C237.264 171.422 230.575 181.383 226.023 193.631L125.632 156.32C136.362 127.449 152.378 103.779 173.68 85.3102C195.582 66.5661 221.82 54.9098 252.393 50.3413C282.966 45.7728 316.188 50.1541 352.057 63.4853C385.302 75.841 411.597 92.8324 430.941 114.46C450.448 135.649 462.698 159.619 467.692 186.368C472.686 213.116 469.9 240.707 459.332 269.14L456.406 277.014C446.001 305.01 430.036 327.205 408.509 343.599C387.582 359.719 362.158 369.188 332.234 372.007C302.474 374.388 269.277 369.269 232.645 356.65L291.332 337.389L263.195 409.077L158.867 370.303ZM91.2472 528.133L130.509 422.493L249.928 466.876L210.666 572.516L91.2472 528.133Z" fill="#5A473D" fill-opacity="0.05"/>
</svg>
